<svg width="165" height="44" viewBox="0 0 165 44" fill="none" xmlns="http://www.w3.org/2000/svg">
<path d="M146.094 14.6484C146.469 14.6484 146.82 14.7161 147.148 14.8516C147.477 14.9818 147.766 15.1693 148.016 15.4141C148.271 15.6536 148.469 15.9401 148.609 16.2734C148.755 16.6068 148.828 16.9766 148.828 17.3828C148.828 17.7891 148.755 18.1589 148.609 18.4922C148.469 18.8255 148.271 19.1146 148.016 19.3594C147.766 19.599 147.477 19.7865 147.148 19.9219C146.82 20.0521 146.469 20.1172 146.094 20.1172C145.719 20.1172 145.365 20.0521 145.031 19.9219C144.703 19.7865 144.411 19.599 144.156 19.3594C143.906 19.1146 143.708 18.8255 143.562 18.4922C143.422 18.1589 143.352 17.7891 143.352 17.3828C143.352 16.9766 143.422 16.6068 143.562 16.2734C143.708 15.9401 143.906 15.6536 144.156 15.4141C144.411 15.1693 144.703 14.9818 145.031 14.8516C145.365 14.7161 145.719 14.6484 146.094 14.6484ZM146.094 15.6719C145.781 15.6719 145.5 15.7474 145.25 15.8984C145.005 16.0495 144.812 16.2526 144.672 16.5078C144.531 16.763 144.461 17.0547 144.461 17.3828C144.461 17.7057 144.531 17.9974 144.672 18.2578C144.812 18.513 145.005 18.7161 145.25 18.8672C145.5 19.013 145.781 19.0859 146.094 19.0859C146.406 19.0859 146.685 19.013 146.93 18.8672C147.174 18.7161 147.367 18.513 147.508 18.2578C147.648 17.9974 147.719 17.7057 147.719 17.3828C147.719 17.0547 147.648 16.763 147.508 16.5078C147.367 16.2526 147.174 16.0495 146.93 15.8984C146.685 15.7474 146.406 15.6719 146.094 15.6719ZM152.964 14.7656V15.7422H151.292V19.9766H150.214V15.7422H148.542V14.7656H152.964ZM157.116 14.7656V15.7422H155.444V19.9766H154.366V15.7422H152.694V14.7656H157.116Z" fill="white"/>
<path d="M116.449 15C115.058 15 113.835 15.5058 112.866 16.391C111.938 15.548 110.674 15 109.283 15C106.332 15 103.93 17.4026 103.93 20.3532V32.7877H107.47V20.311C107.47 19.3415 108.271 18.5407 109.241 18.5407C110.21 18.5407 111.011 19.3415 111.011 20.311V29.795C111.011 29.9636 111.011 30.09 111.053 30.2165V32.7877H114.594V20.311C114.594 19.3415 115.395 18.5407 116.364 18.5407C117.334 18.5407 118.135 19.3415 118.135 20.311V32.7455H121.675V20.311C121.802 17.3604 119.399 15 116.449 15Z" fill="white"/>
<path d="M133.688 15H130.653C127.703 15 125.3 17.4026 125.3 20.3532V32.7877H128.841V26.0435H135.459V32.7877H138.999V20.311C139.041 17.3604 136.639 15 133.688 15ZM128.883 22.2921V20.311C128.883 19.3415 129.684 18.5407 130.653 18.5407H133.688C134.658 18.5407 135.459 19.3415 135.459 20.311V22.2921H128.883Z" fill="white"/>
<path d="M75.984 15C74.9303 15 74.1294 15.843 74.1294 16.8968V32.8298H77.8808V16.8546C77.8387 15.843 76.9957 15 75.984 15Z" fill="white"/>
<path d="M57.311 18.6251H66.795C68.7761 18.6251 70.3356 17.0234 70.3356 15.0845H57.311C54.3604 15.0845 52 17.4871 52 20.4376C52 22.503 53.1802 24.2734 54.8663 25.1585C55.3299 25.4536 55.8779 25.6222 56.4258 25.6643C56.7209 25.7065 57.016 25.7486 57.311 25.7486H65.4461C66.2049 25.9594 66.795 26.6338 66.795 27.4768C66.795 28.4463 65.9941 29.2472 65.0246 29.2472H55.5828C53.6017 29.2472 52.0422 30.8489 52.0422 32.7879H65.0246C67.9752 32.7879 70.3778 30.3852 70.3778 27.4347C70.3778 25.3693 69.1976 23.599 67.5115 22.7138C67.0479 22.4187 66.4999 22.2501 65.9519 22.208C65.6569 22.1658 65.3618 22.1237 65.0668 22.1237H56.8895C56.1308 21.9129 55.5407 21.2385 55.5407 20.3955C55.5407 19.426 56.3415 18.6251 57.311 18.6251Z" fill="white"/>
<path d="M94.6568 22.1657H91.4533H87.5754V25.7063H91.1161H91.4111H94.6146C95.5841 25.7063 96.3849 26.5072 96.3849 27.4767C96.3849 28.4461 95.5841 29.247 94.6146 29.247H90.1888H89.7673H86.6481C85.6786 29.247 84.8356 28.4461 84.8356 27.4767V27.4345V20.4796V20.4375C84.8356 19.468 85.6786 18.6671 86.6481 18.6671H96.132C98.1131 18.6671 99.6727 17.0654 99.6727 15.1265H86.6481C83.6975 15.1265 81.2949 17.5291 81.2949 20.4796V20.5218V27.5188V27.561C81.2949 30.3429 83.4446 32.6612 86.1844 32.872C86.1844 32.872 86.1844 32.872 86.1844 32.9141H86.6059H93.6873H94.5303C97.4809 32.9141 99.8835 30.5115 99.8835 27.561C99.8835 24.6104 97.6073 22.1657 94.6568 22.1657Z" fill="white"/>
<path d="M33.0859 19.3359C31.7109 14.4375 27.2422 10.8281 21.9141 10.8281C16.5859 10.8281 12.1172 14.4375 10.7422 19.3359H7.13281C8.42187 12.2891 14.5234 6.96094 21.9141 6.96094C27.5 6.96094 32.3125 9.96875 34.9766 14.5234H42.625C39.5312 6.10156 31.4531 0 22 0C9.88281 0 0 9.79687 0 22C0 23.1172 0.0859336 24.1484 0.257809 25.2656H10.8281C12.1172 30.25 16.6719 34.0312 22 34.0312C27.4141 34.0312 31.9687 30.3359 33.1719 25.2656H36.6094C35.1484 31.9688 29.1328 37.0391 21.9141 37.0391C16.5859 37.0391 11.9453 34.2891 9.28125 30.0781H1.54687C4.72656 38.2422 12.7187 44 22 44C34.1172 44 44 34.2031 44 22C44 21.1406 43.9141 20.1953 43.8281 19.3359H33.0859ZM22 30.4219C17.5312 30.4219 13.9219 26.8125 13.9219 22.3437C13.9219 17.875 17.5312 14.2656 22 14.2656C26.4687 14.2656 30.0781 17.875 30.0781 22.3437C30.0781 26.8125 26.3828 30.4219 22 30.4219Z" fill="url(#paint0_linear_601_60)"/>
<path d="M33.0859 19.3359C31.7109 14.4375 27.2422 10.8281 21.9141 10.8281C16.5859 10.8281 12.1172 14.4375 10.7422 19.3359H7.13281C8.42187 12.2891 14.5234 6.96094 21.9141 6.96094C27.5 6.96094 32.3125 9.96875 34.9766 14.5234H42.625C39.5312 6.10156 31.4531 0 22 0C9.88281 0 0 9.79687 0 22C0 23.1172 0.0859336 24.1484 0.257809 25.2656H10.8281C12.1172 30.25 16.6719 34.0312 22 34.0312C27.4141 34.0312 31.9687 30.3359 33.1719 25.2656H36.6094C35.1484 31.9688 29.1328 37.0391 21.9141 37.0391C16.5859 37.0391 11.9453 34.2891 9.28125 30.0781H1.54687C4.72656 38.2422 12.7187 44 22 44C34.1172 44 44 34.2031 44 22C44 21.1406 43.9141 20.1953 43.8281 19.3359H33.0859ZM22 30.4219C17.5312 30.4219 13.9219 26.8125 13.9219 22.3437C13.9219 17.875 17.5312 14.2656 22 14.2656C26.4687 14.2656 30.0781 17.875 30.0781 22.3437C30.0781 26.8125 26.3828 30.4219 22 30.4219Z" fill="#6C55F9"/>
<path d="M33.0859 19.3359C31.7109 14.4375 27.2422 10.8281 21.9141 10.8281C16.5859 10.8281 12.1172 14.4375 10.7422 19.3359H7.13281C8.42187 12.2891 14.5234 6.96094 21.9141 6.96094C27.5 6.96094 32.3125 9.96875 34.9766 14.5234H42.625C39.5312 6.10156 31.4531 0 22 0C9.88281 0 0 9.79687 0 22C0 23.1172 0.0859336 24.1484 0.257809 25.2656H10.8281C12.1172 30.25 16.6719 34.0312 22 34.0312C27.4141 34.0312 31.9687 30.3359 33.1719 25.2656H36.6094C35.1484 31.9688 29.1328 37.0391 21.9141 37.0391C16.5859 37.0391 11.9453 34.2891 9.28125 30.0781H1.54687C4.72656 38.2422 12.7187 44 22 44C34.1172 44 44 34.2031 44 22C44 21.1406 43.9141 20.1953 43.8281 19.3359H33.0859ZM22 30.4219C17.5312 30.4219 13.9219 26.8125 13.9219 22.3437C13.9219 17.875 17.5312 14.2656 22 14.2656C26.4687 14.2656 30.0781 17.875 30.0781 22.3437C30.0781 26.8125 26.3828 30.4219 22 30.4219Z" fill="url(#paint1_linear_601_60)"/>
<path d="M26.3828 21.3983L20.7969 17.703C20.0234 17.1874 18.9062 17.789 18.9062 18.7343V26.1249C18.9062 27.0702 20.0234 27.6718 20.7969 27.1562L26.3828 23.4608C27.1562 22.9452 27.1562 21.828 26.3828 21.3983Z" fill="url(#paint2_linear_601_60)"/>
<path d="M26.3828 21.3983L20.7969 17.703C20.0234 17.1874 18.9062 17.789 18.9062 18.7343V26.1249C18.9062 27.0702 20.0234 27.6718 20.7969 27.1562L26.3828 23.4608C27.1562 22.9452 27.1562 21.828 26.3828 21.3983Z" fill="#6C55F9"/>
<path d="M26.3828 21.3983L20.7969 17.703C20.0234 17.1874 18.9062 17.789 18.9062 18.7343V26.1249C18.9062 27.0702 20.0234 27.6718 20.7969 27.1562L26.3828 23.4608C27.1562 22.9452 27.1562 21.828 26.3828 21.3983Z" fill="url(#paint3_linear_601_60)"/>
<defs>
<linearGradient id="paint0_linear_601_60" x1="29.5" y1="0.500001" x2="5.5" y2="37" gradientUnits="userSpaceOnUse">
<stop offset="0.0746449" stop-color="#D77DFA"/>
<stop offset="1" stop-color="#2574FA"/>
</linearGradient>
<linearGradient id="paint1_linear_601_60" x1="-3.5" y1="31" x2="50.5" y2="2.5" gradientUnits="userSpaceOnUse">
<stop stop-color="#8D51FC"/>
<stop offset="1" stop-color="#725DFB"/>
</linearGradient>
<linearGradient id="paint2_linear_601_60" x1="29.5" y1="0.500001" x2="5.5" y2="37" gradientUnits="userSpaceOnUse">
<stop offset="0.0746449" stop-color="#D77DFA"/>
<stop offset="1" stop-color="#2574FA"/>
</linearGradient>
<linearGradient id="paint3_linear_601_60" x1="-3.5" y1="31" x2="50.5" y2="2.5" gradientUnits="userSpaceOnUse">
<stop stop-color="#8D51FC"/>
<stop offset="1" stop-color="#725DFB"/>
</linearGradient>
</defs>
</svg>
