<svg width="141" height="38" viewBox="0 0 141 38" fill="none" xmlns="http://www.w3.org/2000/svg">
<path d="M115.619 10.0586C114.064 10.0586 112.698 10.6239 111.615 11.6132C110.578 10.671 109.165 10.0586 107.61 10.0586C104.313 10.0586 101.627 12.7439 101.627 16.0415V29.9389H105.585V15.9944C105.585 14.9109 106.48 14.0158 107.563 14.0158C108.647 14.0158 109.542 14.9109 109.542 15.9944V26.5941C109.542 26.7826 109.542 26.9239 109.589 27.0652V29.9389H113.546V15.9944C113.546 14.9109 114.441 14.0158 115.525 14.0158C116.608 14.0158 117.503 14.9109 117.503 15.9944V29.8918H121.461V15.9944C121.602 12.6967 118.917 10.0586 115.619 10.0586Z" fill="white"/>
<path d="M134.887 10.0586H131.495C128.197 10.0586 125.512 12.7439 125.512 16.0415V29.9389H129.469V22.4014H136.866V29.9389H140.823V15.9944C140.87 12.6967 138.185 10.0586 134.887 10.0586ZM129.517 18.2086V15.9944C129.517 14.9109 130.412 14.0158 131.495 14.0158H134.887C135.971 14.0158 136.866 14.9109 136.866 15.9944V18.2086H129.517Z" fill="white"/>
<path d="M70.3936 10.0586C69.2159 10.0586 68.3208 11.0008 68.3208 12.1785V29.9861H72.5136V12.1314C72.4665 11.0008 71.5243 10.0586 70.3936 10.0586Z" fill="white"/>
<path d="M49.5242 14.1101H60.1239C62.3381 14.1101 64.0812 12.3199 64.0812 10.1528H49.5242C46.2265 10.1528 43.5884 12.8381 43.5884 16.1358C43.5884 18.4442 44.9075 20.4228 46.7918 21.4121C47.3101 21.7418 47.9225 21.9303 48.5349 21.9774C48.8647 22.0245 49.1944 22.0716 49.5242 22.0716H58.6164C59.4644 22.3072 60.1239 23.0609 60.1239 24.0031C60.1239 25.0866 59.2288 25.9817 58.1453 25.9817H47.5927C45.3786 25.9817 43.6355 27.7719 43.6355 29.939H58.1453C61.443 29.939 64.1283 27.2537 64.1283 23.956C64.1283 21.6476 62.8092 19.669 60.9248 18.6797C60.4066 18.3499 59.7942 18.1615 59.1817 18.1144C58.852 18.0673 58.5222 18.0202 58.1924 18.0202H49.0531C48.2051 17.7846 47.5456 17.0309 47.5456 16.0887C47.5456 15.0051 48.4407 14.1101 49.5242 14.1101Z" fill="white"/>
<path d="M91.2634 18.067H87.6831H83.349V22.0243H87.3062H87.6359H91.2163C92.2998 22.0243 93.1949 22.9194 93.1949 24.0029C93.1949 25.0864 92.2998 25.9815 91.2163 25.9815H86.2698H85.7987H82.3125C81.229 25.9815 80.2868 25.0864 80.2868 24.0029V23.9558V16.1827V16.1355C80.2868 15.052 81.229 14.1569 82.3125 14.1569H92.9122C95.1264 14.1569 96.8695 12.3668 96.8695 10.1997H82.3125C79.0148 10.1997 76.3296 12.885 76.3296 16.1827V16.2298V24.05V24.0971C76.3296 27.2064 78.7322 29.7974 81.7943 30.0329C81.7943 30.0329 81.7943 30.0329 81.7943 30.0801H82.2654H90.1799H91.1221C94.4198 30.0801 97.105 27.3948 97.105 24.0971C97.105 20.7994 94.5611 18.067 91.2634 18.067Z" fill="white"/>
<path d="M28.5742 16.6992C27.3867 12.4687 23.5273 9.35156 18.9258 9.35156C14.3242 9.35156 10.4648 12.4687 9.27734 16.6992H6.16015C7.27343 10.6133 12.543 6.01172 18.9258 6.01172C23.75 6.01172 27.9062 8.60938 30.207 12.543H36.8125C34.1406 5.26953 27.1641 0 19 0C8.53516 0 0 8.46094 0 19C0 19.9648 0.0742153 20.8555 0.222653 21.8203H9.35156C10.4648 26.125 14.3984 29.3906 19 29.3906C23.6758 29.3906 27.6094 26.1992 28.6484 21.8203H31.6172C30.3555 27.6094 25.1602 31.9883 18.9258 31.9883C14.3242 31.9883 10.3164 29.6133 8.01562 25.9766H1.33593C4.08203 33.0273 10.9844 38 19 38C29.4648 38 38 29.5391 38 19C38 18.2578 37.9258 17.4414 37.8516 16.6992H28.5742ZM19 26.2734C15.1406 26.2734 12.0234 23.1562 12.0234 19.2969C12.0234 15.4375 15.1406 12.3203 19 12.3203C22.8594 12.3203 25.9766 15.4375 25.9766 19.2969C25.9766 23.1562 22.7852 26.2734 19 26.2734Z" fill="white"/>
<path d="M22.7852 18.4804L17.9609 15.289C17.293 14.8437 16.3281 15.3632 16.3281 16.1796V22.5624C16.3281 23.3788 17.293 23.8984 17.9609 23.453L22.7852 20.2616C23.4531 19.8163 23.4531 18.8515 22.7852 18.4804Z" fill="white"/>
</svg>
