<svg width="121" height="40" viewBox="0 0 121 40" fill="none" xmlns="http://www.w3.org/2000/svg">
<path d="M98.4485 11C97.0575 11 95.8351 11.5058 94.8657 12.391C93.9384 11.548 92.6738 11 91.2828 11C88.3323 11 85.9297 13.4026 85.9297 16.3532V28.7877H89.4704V16.311C89.4704 15.3415 90.2712 14.5407 91.2407 14.5407C92.2102 14.5407 93.011 15.3415 93.011 16.311V25.795C93.011 25.9636 93.011 26.09 93.0532 26.2165V28.7877H96.5939V16.311C96.5939 15.3415 97.3947 14.5407 98.3642 14.5407C99.3337 14.5407 100.135 15.3415 100.135 16.311V28.7455H103.675V16.311C103.802 13.3604 101.399 11 98.4485 11Z" fill="#A35FF8"/>
<path d="M115.688 11H112.653C109.703 11 107.3 13.4026 107.3 16.3532V28.7877H110.841V22.0435H117.459V28.7877H120.999V16.311C121.041 13.3604 118.639 11 115.688 11ZM110.883 18.2921V16.311C110.883 15.3415 111.684 14.5407 112.653 14.5407H115.688C116.658 14.5407 117.459 15.3415 117.459 16.311V18.2921H110.883Z" fill="#A35FF8"/>
<path d="M57.984 11C56.9303 11 56.1294 11.843 56.1294 12.8968V28.8298H59.8808V12.8546C59.8387 11.843 58.9957 11 57.984 11Z" fill="#2CFDDC"/>
<path d="M39.311 14.6251H48.795C50.7761 14.6251 52.3356 13.0234 52.3356 11.0845H39.311C36.3604 11.0845 34 13.4871 34 16.4376C34 18.503 35.1802 20.2734 36.8663 21.1585C37.3299 21.4536 37.8779 21.6222 38.4258 21.6643C38.7209 21.7065 39.016 21.7486 39.311 21.7486H47.4461C48.2049 21.9594 48.795 22.6338 48.795 23.4768C48.795 24.4463 47.9941 25.2472 47.0246 25.2472H37.5828C35.6017 25.2472 34.0422 26.8489 34.0422 28.7879H47.0246C49.9752 28.7879 52.3778 26.3852 52.3778 23.4347C52.3778 21.3693 51.1976 19.599 49.5115 18.7138C49.0479 18.4187 48.4999 18.2501 47.9519 18.208C47.6569 18.1658 47.3618 18.1237 47.0668 18.1237H38.8895C38.1308 17.9129 37.5407 17.2385 37.5407 16.3955C37.5407 15.426 38.3415 14.6251 39.311 14.6251Z" fill="#2CFDDC"/>
<path d="M76.6568 18.1657H73.4533H69.5754V21.7063H73.1161H73.4111H76.6146C77.5841 21.7063 78.3849 22.5072 78.3849 23.4767C78.3849 24.4461 77.5841 25.247 76.6146 25.247H72.1888H71.7673H68.6481C67.6786 25.247 66.8356 24.4461 66.8356 23.4767V23.4345V16.4796V16.4375C66.8356 15.468 67.6786 14.6671 68.6481 14.6671H78.132C80.1131 14.6671 81.6727 13.0654 81.6727 11.1265H68.6481C65.6975 11.1265 63.2949 13.5291 63.2949 16.4796V16.5218V23.5188V23.561C63.2949 26.3429 65.4446 28.6612 68.1844 28.872C68.1844 28.872 68.1844 28.872 68.1844 28.9141H68.6059H75.6873H76.5303C79.4809 28.9141 81.8835 26.5115 81.8835 23.561C81.8835 20.6104 79.6073 18.1657 76.6568 18.1657Z" fill="#2CFDDC"/>
<path d="M13.1841 11.8018V0L27.0001 20L25.8262 21.6216L13.1841 11.8018Z" fill="#A35FF8"/>
<path d="M13.8159 28.1982V40L-0.000135422 20L1.17378 18.3784L13.8159 28.1982Z" fill="#35E3C8"/>
<path d="M13.1841 11.8018V0L1.89648 16.4865L11.5587 23.4234L12.6423 21.6216L9.57207 17.2072L13.1841 11.8018Z" fill="#9048EA"/>
<path d="M13.8159 28.1982V40L25.1035 23.5135L15.4413 16.5766L14.3577 18.3784L17.3376 23.1532L13.8159 28.1982Z" fill="#2CFDDC"/>
</svg>
