<svg width="44" height="44" viewBox="0 0 44 44" fill="none" xmlns="http://www.w3.org/2000/svg">
<path d="M33.0859 19.3359C31.7109 14.4375 27.2422 10.8281 21.9141 10.8281C16.5859 10.8281 12.1172 14.4375 10.7422 19.3359H7.13281C8.42187 12.2891 14.5234 6.96094 21.9141 6.96094C27.5 6.96094 32.3125 9.96875 34.9766 14.5234H42.625C39.5312 6.10156 31.4531 0 22 0C9.88281 0 0 9.79687 0 22C0 23.1172 0.0859336 24.1484 0.257809 25.2656H10.8281C12.1172 30.25 16.6719 34.0312 22 34.0312C27.4141 34.0312 31.9687 30.3359 33.1719 25.2656H36.6094C35.1484 31.9688 29.1328 37.0391 21.9141 37.0391C16.5859 37.0391 11.9453 34.2891 9.28125 30.0781H1.54687C4.72656 38.2422 12.7187 44 22 44C34.1172 44 44 34.2031 44 22C44 21.1406 43.9141 20.1953 43.8281 19.3359H33.0859ZM22 30.4219C17.5312 30.4219 13.9219 26.8125 13.9219 22.3437C13.9219 17.875 17.5312 14.2656 22 14.2656C26.4687 14.2656 30.0781 17.875 30.0781 22.3437C30.0781 26.8125 26.3828 30.4219 22 30.4219Z" fill="url(#paint0_linear_671_54)"/>
<path d="M33.0859 19.3359C31.7109 14.4375 27.2422 10.8281 21.9141 10.8281C16.5859 10.8281 12.1172 14.4375 10.7422 19.3359H7.13281C8.42187 12.2891 14.5234 6.96094 21.9141 6.96094C27.5 6.96094 32.3125 9.96875 34.9766 14.5234H42.625C39.5312 6.10156 31.4531 0 22 0C9.88281 0 0 9.79687 0 22C0 23.1172 0.0859336 24.1484 0.257809 25.2656H10.8281C12.1172 30.25 16.6719 34.0312 22 34.0312C27.4141 34.0312 31.9687 30.3359 33.1719 25.2656H36.6094C35.1484 31.9688 29.1328 37.0391 21.9141 37.0391C16.5859 37.0391 11.9453 34.2891 9.28125 30.0781H1.54687C4.72656 38.2422 12.7187 44 22 44C34.1172 44 44 34.2031 44 22C44 21.1406 43.9141 20.1953 43.8281 19.3359H33.0859ZM22 30.4219C17.5312 30.4219 13.9219 26.8125 13.9219 22.3437C13.9219 17.875 17.5312 14.2656 22 14.2656C26.4687 14.2656 30.0781 17.875 30.0781 22.3437C30.0781 26.8125 26.3828 30.4219 22 30.4219Z" fill="#6C55F9"/>
<path d="M33.0859 19.3359C31.7109 14.4375 27.2422 10.8281 21.9141 10.8281C16.5859 10.8281 12.1172 14.4375 10.7422 19.3359H7.13281C8.42187 12.2891 14.5234 6.96094 21.9141 6.96094C27.5 6.96094 32.3125 9.96875 34.9766 14.5234H42.625C39.5312 6.10156 31.4531 0 22 0C9.88281 0 0 9.79687 0 22C0 23.1172 0.0859336 24.1484 0.257809 25.2656H10.8281C12.1172 30.25 16.6719 34.0312 22 34.0312C27.4141 34.0312 31.9687 30.3359 33.1719 25.2656H36.6094C35.1484 31.9688 29.1328 37.0391 21.9141 37.0391C16.5859 37.0391 11.9453 34.2891 9.28125 30.0781H1.54687C4.72656 38.2422 12.7187 44 22 44C34.1172 44 44 34.2031 44 22C44 21.1406 43.9141 20.1953 43.8281 19.3359H33.0859ZM22 30.4219C17.5312 30.4219 13.9219 26.8125 13.9219 22.3437C13.9219 17.875 17.5312 14.2656 22 14.2656C26.4687 14.2656 30.0781 17.875 30.0781 22.3437C30.0781 26.8125 26.3828 30.4219 22 30.4219Z" fill="url(#paint1_linear_671_54)"/>
<path d="M26.3828 21.3983L20.7969 17.703C20.0234 17.1874 18.9062 17.789 18.9062 18.7343V26.1249C18.9062 27.0702 20.0234 27.6718 20.7969 27.1562L26.3828 23.4608C27.1562 22.9452 27.1562 21.828 26.3828 21.3983Z" fill="url(#paint2_linear_671_54)"/>
<path d="M26.3828 21.3983L20.7969 17.703C20.0234 17.1874 18.9062 17.789 18.9062 18.7343V26.1249C18.9062 27.0702 20.0234 27.6718 20.7969 27.1562L26.3828 23.4608C27.1562 22.9452 27.1562 21.828 26.3828 21.3983Z" fill="#6C55F9"/>
<path d="M26.3828 21.3983L20.7969 17.703C20.0234 17.1874 18.9062 17.789 18.9062 18.7343V26.1249C18.9062 27.0702 20.0234 27.6718 20.7969 27.1562L26.3828 23.4608C27.1562 22.9452 27.1562 21.828 26.3828 21.3983Z" fill="url(#paint3_linear_671_54)"/>
<defs>
<linearGradient id="paint0_linear_671_54" x1="29.5" y1="0.500001" x2="5.5" y2="37" gradientUnits="userSpaceOnUse">
<stop offset="0.0746449" stop-color="#D77DFA"/>
<stop offset="1" stop-color="#2574FA"/>
</linearGradient>
<linearGradient id="paint1_linear_671_54" x1="-3.5" y1="31" x2="50.5" y2="2.5" gradientUnits="userSpaceOnUse">
<stop stop-color="#8D51FC"/>
<stop offset="1" stop-color="#725DFB"/>
</linearGradient>
<linearGradient id="paint2_linear_671_54" x1="29.5" y1="0.500001" x2="5.5" y2="37" gradientUnits="userSpaceOnUse">
<stop offset="0.0746449" stop-color="#D77DFA"/>
<stop offset="1" stop-color="#2574FA"/>
</linearGradient>
<linearGradient id="paint3_linear_671_54" x1="-3.5" y1="31" x2="50.5" y2="2.5" gradientUnits="userSpaceOnUse">
<stop stop-color="#8D51FC"/>
<stop offset="1" stop-color="#725DFB"/>
</linearGradient>
</defs>
</svg>
